<svg width="90" height="30" viewBox="0 0 90 30" fill="none" xmlns="http://www.w3.org/2000/svg">
    <path fill-rule="evenodd" clip-rule="evenodd" d="M33.053 0a4.173 4.173 0 0 0-4.173 4.173v21.452a4.173 4.173 0 0 0 8.347 0V4.173A4.173 4.173 0 0 0 33.054 0zM22.37.292H4.172a4.173 4.173 0 1 0 0 8.347H22.37a4.174 4.174 0 0 0 0-8.347zM87.66 16.858 78.864 2.541C77.83.877 76.423.074 74.645.074c-1.832 0-3.39.859-4.357 2.467L60.104 19.416c-.696 1.156-1.498 1.636-2.825 1.636h-7.57c-.643 0-1.067-.474-1.067-1.066V4.033C48.642 1.734 46.778 0 44.48 0c-2.3 0-4.164 1.735-4.164 4.034V23.59c0 2.942 2.906 5.791 5.79 5.791h15.24c2.163 0 3.614-1.578 4.849-3.735l7.924-13.601c.07-.15.2-.342.351-.342.161 0 .261.193.342.332l5.19 8.322c.215.353.255.532.118.846-.123.287-.404.348-.862.348H71.971a3.916 3.916 0 0 0 0 7.83h11.885c2.886 0 6.144-2.753 6.144-6.348 0-2.28-.44-3.082-2.34-6.175zM20.366 10.976H4.173A4.173 4.173 0 0 0 0 15.15v10.184a4.173 4.173 0 1 0 8.347 0v-4.758c0-.691.56-1.252 1.252-1.252h10.767a4.173 4.173 0 0 0 0-8.347z" fill="#19191A"/>
</svg>
